<svg xmlns="http://www.w3.org/2000/svg" width="59" height="59" viewBox="0 0 59 59"><g transform="translate(-24.348 -25)"><rect width="59" height="59" rx="10" transform="translate(24.348 25)" fill="#02bc77" opacity="0.17"/><g transform="translate(35.826 38)"><path d="M-1204.353-1314h-20.125v-3.625c0-2.691,2.956-4.44,5.435-5.433a26.916,26.916,0,0,1,9.065-1.817,25.545,25.545,0,0,1,5.711.759,8.424,8.424,0,0,0-1.711,5.115,8.437,8.437,0,0,0,1.624,5Zm-5.625-14.5a7.259,7.259,0,0,1-7.25-7.25,7.258,7.258,0,0,1,7.25-7.25,7.258,7.258,0,0,1,7.25,7.25A7.258,7.258,0,0,1-1209.978-1328.5Z" transform="translate(1224.478 1343)" fill="#02bc77"/><path d="M557.161,323.744q-1.656,1.7-3.36,3.358a1.762,1.762,0,0,1-2.68-.023c-.529-.5-1.042-1.022-1.544-1.547a1.806,1.806,0,0,1-.145-2.616,1.849,1.849,0,0,1,2.631.1c.118.1.23.211.466.428.742-.767,1.43-1.509,2.153-2.22a1.729,1.729,0,0,1,2.6-.107A1.8,1.8,0,0,1,557.161,323.744Z" transform="translate(-526.465 -300.581)" fill="#02bc77"/><g transform="translate(17 14)" fill="none" stroke="#02bc77" stroke-width="3"><circle cx="10" cy="10" r="10" stroke="none"/><circle cx="10" cy="10" r="8.5" fill="none"/></g></g></g></svg>