<svg xmlns="http://www.w3.org/2000/svg" width="60" height="59" viewBox="0 0 60 59">
  <g id="Groupe_145" data-name="Groupe 145" transform="translate(-24.348 -25)">
    <rect id="Rectangle_227" data-name="Rectangle 227" width="60" height="59" rx="10" transform="translate(24.348 25)" fill="#02bc77" opacity="0.17"/>
    <g id="Groupe_62" data-name="Groupe 62" transform="translate(38.55 37.203)">
      <path id="Tracé_348" data-name="Tracé 348" d="M508.055,260.4a1.978,1.978,0,0,1-.569-1.5c.023-4.036.012-8.071.011-12.107,0-2.437-1.21-3.645-3.642-3.648-1.176,0-2.352,0-3.6,0a2.563,2.563,0,0,0-1.693-2.92H487.452a2.52,2.52,0,0,0-1.639,2.863c-.272.022-.489.054-.707.056-1.156,0-2.313-.014-3.469.009a3.062,3.062,0,0,0-3.034,2.81,9.829,9.829,0,0,0-.031,1q0,12.023,0,24.05c0,2.326.478,3.06,2.554,3.934h21.605a20.6,20.6,0,0,0,3.607-1.406A8.562,8.562,0,0,0,508.055,260.4Zm-19.309-17.238H497.3v2.812h-8.559Zm6.372,28.819a5.031,5.031,0,0,1-.568.068c-4.114,0-8.229-.008-12.341.016-.608,0-.786-.168-.784-.784q.03-12.264,0-24.528c0-.546.13-.8.727-.779,1.179.034,2.358.009,3.593.009.045.451.055.784.114,1.11a2.06,2.06,0,0,0,2.087,1.789q5.051.019,10.1,0a2.164,2.164,0,0,0,2.2-2.039c.024-.251,0-.508,0-.855,1.333,0,2.613,0,3.89,0,.526,0,.44.391.44.716q0,3.817,0,7.636v3.678c-4.54-1.079-8.235.069-10.522,4.231C492.221,265.609,492.818,268.888,495.118,271.983Zm6.644.071a5.727,5.727,0,0,1-5.837-5.78,5.8,5.8,0,0,1,5.758-5.807,5.869,5.869,0,0,1,5.826,5.772A5.785,5.785,0,0,1,501.761,272.054Z" transform="translate(-478.571 -240.232)" fill="#02bc77"/>
      <path id="Tracé_349" data-name="Tracé 349" d="M505.385,290.41l.225,0h0C505.535,290.407,505.461,290.408,505.385,290.41Zm-.955.006c.205.006.41,0,.617,0C504.84,290.419,504.635,290.423,504.43,290.416Z" transform="translate(-496.981 -275.953)" fill="#02bc77"/>
      <path id="Tracé_350" data-name="Tracé 350" d="M508.748,301.977a1.385,1.385,0,0,1-1.511,1.469q-3.51.021-7.02,0a1.419,1.419,0,1,1-.014-2.827c1.184-.015,2.366,0,3.549,0,1.157,0,2.313-.009,3.471,0C508.183,300.63,508.729,301.13,508.748,301.977Z" transform="translate(-492.883 -283.217)" fill="#02bc77"/>
      <path id="Tracé_351" data-name="Tracé 351" d="M537.412,281.826c.009.9-.569,1.437-1.611,1.457-.9.017-1.8,0-2.7,0s-1.8.012-2.7,0a1.455,1.455,0,1,1,.035-2.881q2.66-.016,5.318,0C536.787,280.408,537.4,280.954,537.412,281.826Z" transform="translate(-514.306 -268.824)" fill="#02bc77"/>
      <path id="Tracé_352" data-name="Tracé 352" d="M502.349,322.037a1.493,1.493,0,0,1-1.671,1.42c-.9.009-1.8,0-2.7,0s-1.8.012-2.7,0a1.4,1.4,0,0,1-1.573-1.415,1.434,1.434,0,0,1,1.61-1.463q2.7-.019,5.395,0A1.478,1.478,0,0,1,502.349,322.037Z" transform="translate(-489.349 -297.425)" fill="#02bc77"/>
      <path id="Tracé_353" data-name="Tracé 353" d="M504.414,281.781a1.362,1.362,0,0,1-1.356,1.465c-.192.015-.383.02-.576.02q-.19,0-.38,0h-.085c-.1,0-.2,0-.295,0-.034,0-.068,0-.1,0h-.1l-.225,0-.338.006c-.207,0-.412.006-.617,0-.094,0-.188-.008-.283-.015a1.41,1.41,0,0,1-1.373-1.465,1.392,1.392,0,0,1,1.37-1.391c1-.046,2-.045,3,0A1.372,1.372,0,0,1,504.414,281.781Z" transform="translate(-492.887 -268.798)" fill="#02bc77"/>
      <path id="Tracé_354" data-name="Tracé 354" d="M555.6,323.145q-1.343,1.38-2.724,2.722a1.428,1.428,0,0,1-2.173-.018c-.429-.407-.844-.829-1.252-1.255a1.464,1.464,0,0,1-.117-2.121,1.5,1.5,0,0,1,2.133.085c.1.083.187.171.378.347.6-.622,1.159-1.224,1.745-1.8a1.4,1.4,0,0,1,2.111-.086A1.459,1.459,0,0,1,555.6,323.145Z" transform="translate(-528.667 -297.435)" fill="#02bc77"/>
    </g>
  </g>
</svg>
