<svg xmlns="http://www.w3.org/2000/svg" width="59" height="59" viewBox="0 0 59 59">
  <g id="Groupe_169" data-name="Groupe 169" transform="translate(-24.898 -25)">
    <rect id="Rectangle_225" data-name="Rectangle 225" width="59" height="59" rx="10" transform="translate(24.898 25)" fill="#ff4500" opacity="0.17"/>
    <g id="Groupe_59" data-name="Groupe 59" transform="translate(39.987 37.203)">
      <path id="Tracé_355" data-name="Tracé 355" d="M386.447,260.4a1.977,1.977,0,0,1-.57-1.5c.023-4.036.012-8.071.011-12.107,0-2.437-1.21-3.645-3.642-3.648-1.176,0-2.352,0-3.6,0a2.563,2.563,0,0,0-1.693-2.92H365.845a2.52,2.52,0,0,0-1.639,2.863c-.272.022-.489.054-.707.056-1.156,0-2.314-.014-3.469.009A3.062,3.062,0,0,0,357,245.97a9.918,9.918,0,0,0-.031,1q0,12.023,0,24.05c0,2.326.479,3.06,2.554,3.934h21.606a20.6,20.6,0,0,0,3.606-1.406A8.562,8.562,0,0,0,386.447,260.4Zm-19.309-17.238H375.7v2.812h-8.559Zm6.372,28.819a5.042,5.042,0,0,1-.568.068c-4.114,0-8.228-.008-12.341.016-.608,0-.786-.168-.784-.784q.03-12.264,0-24.528c0-.546.13-.8.727-.779,1.179.034,2.358.009,3.593.009.045.451.056.784.114,1.11a2.06,2.06,0,0,0,2.087,1.789q5.051.019,10.1,0a2.164,2.164,0,0,0,2.2-2.039c.025-.251,0-.508,0-.855,1.334,0,2.613,0,3.89,0,.526,0,.44.391.44.716q0,3.817,0,7.636v3.678c-4.54-1.079-8.235.069-10.522,4.231C370.613,265.609,371.21,268.888,373.51,271.983Zm6.643.071a5.727,5.727,0,0,1-5.837-5.78,5.8,5.8,0,0,1,5.758-5.807,5.869,5.869,0,0,1,5.826,5.772A5.785,5.785,0,0,1,380.153,272.054Z" transform="translate(-356.963 -240.232)" fill="#ff4500"/>
      <path id="Tracé_356" data-name="Tracé 356" d="M383.777,290.41l.225,0h0C383.927,290.407,383.853,290.408,383.777,290.41Zm-.955.006c.205.006.411,0,.617,0C383.233,290.419,383.027,290.423,382.822,290.416Z" transform="translate(-375.373 -275.953)" fill="#ff4500"/>
      <path id="Tracé_357" data-name="Tracé 357" d="M387.14,301.977a1.385,1.385,0,0,1-1.511,1.469q-3.509.021-7.02,0a1.419,1.419,0,1,1-.014-2.827c1.184-.015,2.366,0,3.55,0,1.157,0,2.313-.009,3.471,0C386.575,300.63,387.121,301.13,387.14,301.977Z" transform="translate(-371.275 -283.217)" fill="#ff4500"/>
      <path id="Tracé_358" data-name="Tracé 358" d="M415.8,281.826c.009.9-.57,1.437-1.611,1.457-.9.017-1.8,0-2.7,0s-1.8.012-2.7,0a1.455,1.455,0,1,1,.036-2.881q2.66-.016,5.318,0C415.18,280.408,415.794,280.954,415.8,281.826Z" transform="translate(-392.699 -268.824)" fill="#ff4500"/>
      <path id="Tracé_359" data-name="Tracé 359" d="M380.741,322.037a1.493,1.493,0,0,1-1.671,1.42c-.9.009-1.8,0-2.7,0s-1.8.012-2.7,0a1.4,1.4,0,0,1-1.573-1.415,1.434,1.434,0,0,1,1.61-1.463q2.7-.019,5.4,0A1.478,1.478,0,0,1,380.741,322.037Z" transform="translate(-367.741 -297.425)" fill="#ff4500"/>
      <path id="Tracé_360" data-name="Tracé 360" d="M382.806,281.781a1.362,1.362,0,0,1-1.357,1.465c-.192.015-.383.02-.576.02q-.19,0-.38,0h-.085c-.1,0-.2,0-.295,0-.034,0-.068,0-.1,0h-.1l-.225,0-.338.006c-.207,0-.412.006-.617,0-.094,0-.188-.008-.282-.015a1.41,1.41,0,0,1-1.374-1.465,1.392,1.392,0,0,1,1.37-1.391c1-.046,2-.045,3,0A1.372,1.372,0,0,1,382.806,281.781Z" transform="translate(-371.279 -268.798)" fill="#ff4500"/>
      <path id="Tracé_361" data-name="Tracé 361" d="M427.271,329.212c1.019,0,2.039,0,3.058,0a.806.806,0,0,0,.893-.788.8.8,0,0,0-.867-.812q-3.109-.007-6.219,0a1.047,1.047,0,0,0-.429.091.8.8,0,0,0,.368,1.5C425.14,329.217,426.206,329.211,427.271,329.212Z" transform="translate(-404.175 -302.437)" fill="#ff4500"/>
    </g>
  </g>
</svg>
