<svg xmlns="http://www.w3.org/2000/svg" width="60" height="59" viewBox="0 0 60 59"><g transform="translate(-24.348 -25)"><rect width="60" height="59" rx="10" transform="translate(24.348 25)" fill="#ffd950" opacity="0.17"/><g transform="translate(-0.102)"><path d="M15.149,15.728c-3.657-.951-4.833-1.933-4.833-3.464,0-1.756,1.627-2.981,4.35-2.981,2.868,0,3.931,1.369,4.028,3.383h3.561a6.422,6.422,0,0,0-5.172-6.138V3H12.249V6.48C9.123,7.157,6.61,9.187,6.61,12.3c0,3.722,3.077,5.574,7.572,6.654,4.028.967,4.833,2.384,4.833,3.883,0,1.112-.789,2.884-4.35,2.884-3.319,0-4.624-1.482-4.8-3.383H6.32c.193,3.528,2.836,5.51,5.929,6.171V32h4.833V28.536c3.142-.6,5.639-2.417,5.639-5.719C22.721,18.241,18.806,16.678,15.149,15.728Z" transform="translate(40.129 37)" fill="#ffd950"/></g></g></svg>