<svg xmlns="http://www.w3.org/2000/svg" width="59" height="59" viewBox="0 0 59 59"><g transform="translate(-474 -224)"><rect width="59" height="59" rx="10" transform="translate(474 224)" fill="#1e90ff" opacity="0.17"/><path d="M16,4.5A16.127,16.127,0,0,0,1,14.727a16.114,16.114,0,0,0,30,0A16.127,16.127,0,0,0,16,4.5Zm0,17.045a6.818,6.818,0,1,1,6.818-6.818A6.821,6.821,0,0,1,16,21.545Zm0-10.909a4.091,4.091,0,1,0,4.091,4.091A4.085,4.085,0,0,0,16,10.636Z" transform="translate(488 239.045)" fill="#1e90ff"/></g></svg>